<svg xmlns="http://www.w3.org/2000/svg" viewBox="0 0 300 450" width="300" height="450">
  <rect width="300" height="450" fill="#1e2030"/>
  <rect x="20" y="20" width="260" height="410" rx="6" fill="#252840"/>
  <!-- Film strip holes top -->
  <rect x="30" y="32" width="18" height="14" rx="3" fill="#1e2030"/>
  <rect x="58" y="32" width="18" height="14" rx="3" fill="#1e2030"/>
  <rect x="86" y="32" width="18" height="14" rx="3" fill="#1e2030"/>
  <rect x="114" y="32" width="18" height="14" rx="3" fill="#1e2030"/>
  <rect x="142" y="32" width="18" height="14" rx="3" fill="#1e2030"/>
  <rect x="170" y="32" width="18" height="14" rx="3" fill="#1e2030"/>
  <rect x="198" y="32" width="18" height="14" rx="3" fill="#1e2030"/>
  <rect x="226" y="32" width="18" height="14" rx="3" fill="#1e2030"/>
  <rect x="254" y="32" width="18" height="14" rx="3" fill="#1e2030"/>
  <!-- Film strip holes bottom -->
  <rect x="30" y="404" width="18" height="14" rx="3" fill="#1e2030"/>
  <rect x="58" y="404" width="18" height="14" rx="3" fill="#1e2030"/>
  <rect x="86" y="404" width="18" height="14" rx="3" fill="#1e2030"/>
  <rect x="114" y="404" width="18" height="14" rx="3" fill="#1e2030"/>
  <rect x="142" y="404" width="18" height="14" rx="3" fill="#1e2030"/>
  <rect x="170" y="404" width="18" height="14" rx="3" fill="#1e2030"/>
  <rect x="198" y="404" width="18" height="14" rx="3" fill="#1e2030"/>
  <rect x="226" y="404" width="18" height="14" rx="3" fill="#1e2030"/>
  <rect x="254" y="404" width="18" height="14" rx="3" fill="#1e2030"/>
  <!-- Camera/film icon centred -->
  <g transform="translate(108, 185)">
    <!-- Outer body -->
    <rect x="0" y="14" width="84" height="56" rx="8" fill="#3d4160"/>
    <!-- Lens -->
    <circle cx="42" cy="42" r="20" fill="#2a2e4a"/>
    <circle cx="42" cy="42" r="14" fill="#3d4160"/>
    <circle cx="42" cy="42" r="8" fill="#5a6080"/>
    <!-- Viewfinder bump -->
    <rect x="10" y="6" width="22" height="12" rx="4" fill="#3d4160"/>
    <!-- Flash/detail -->
    <rect x="58" y="20" width="16" height="10" rx="3" fill="#4a5070"/>
    <!-- Highlight on lens -->
    <circle cx="36" cy="36" r="4" fill="#7080a0" opacity="0.5"/>
  </g>
</svg>
